<group>


<region>
lokey=4
hikey=4
lovel=0
hivel=96
pitch_keytrack=0
sample=samples/sample-lokey4-hikey4-lovel0-hivel96.wav

<region>
lokey=4
hikey=4
lovel=97
hivel=127
pitch_keytrack=0
sample=samples/sample-lokey4-hikey4-lovel97-hivel127.wav

<group>


<region>
lokey=6
hikey=6
lovel=0
hivel=96
pitch_keytrack=0
sample=samples/sample-lokey6-hikey6-lovel0-hivel96.wav

<region>
lokey=6
hikey=6
lovel=97
hivel=127
pitch_keytrack=0
sample=samples/sample-lokey6-hikey6-lovel97-hivel127.wav

<group>


<region>
lokey=9
hikey=9
lovel=0
hivel=96
pitch_keytrack=0
sample=samples/sample-lokey9-hikey9-lovel0-hivel96.wav

<region>
lokey=9
hikey=9
lovel=97
hivel=127
pitch_keytrack=0
sample=samples/sample-lokey9-hikey9-lovel97-hivel127.wav

<group>


<region>
lokey=11
hikey=11
lovel=0
hivel=96
pitch_keytrack=0
sample=samples/sample-lokey11-hikey11-lovel0-hivel96.wav

<region>
lokey=11
hikey=11
lovel=97
hivel=127
pitch_keytrack=0
sample=samples/sample-lokey11-hikey11-lovel97-hivel127.wav

<group>


<region>
lokey=13
hikey=13
lovel=0
hivel=96
pitch_keytrack=0
sample=samples/sample-lokey13-hikey13-lovel0-hivel96.wav

<region>
lokey=13
hikey=13
lovel=97
hivel=127
pitch_keytrack=0
sample=samples/sample-lokey13-hikey13-lovel97-hivel127.wav

<group>


<region>
lokey=16
hikey=16
lovel=0
hivel=96
pitch_keytrack=0
sample=samples/sample-lokey16-hikey16-lovel0-hivel96.wav

<region>
lokey=16
hikey=16
lovel=97
hivel=127
pitch_keytrack=0
sample=samples/sample-lokey16-hikey16-lovel97-hivel127.wav

<group>


<region>
lokey=18
hikey=18
lovel=0
hivel=96
pitch_keytrack=0
sample=samples/sample-lokey18-hikey18-lovel0-hivel96.wav

<region>
lokey=18
hikey=18
lovel=97
hivel=127
pitch_keytrack=0
sample=samples/sample-lokey18-hikey18-lovel97-hivel127.wav

<group>


<region>
lokey=21
hikey=21
lovel=0
hivel=96
pitch_keytrack=0
sample=samples/sample-lokey21-hikey21-lovel0-hivel96.wav

<region>
lokey=21
hikey=21
lovel=97
hivel=127
pitch_keytrack=0
sample=samples/sample-lokey21-hikey21-lovel97-hivel127.wav

<group>


<region>
lokey=23
hikey=23
lovel=0
hivel=96
pitch_keytrack=0
sample=samples/sample-lokey23-hikey23-lovel0-hivel96.wav

<region>
lokey=23
hikey=23
lovel=97
hivel=127
pitch_keytrack=0
sample=samples/sample-lokey23-hikey23-lovel97-hivel127.wav

<group>


<region>
lokey=25
hikey=25
lovel=0
hivel=96
pitch_keytrack=0
sample=samples/sample-lokey25-hikey25-lovel0-hivel96.wav

<region>
lokey=25
hikey=25
lovel=97
hivel=127
pitch_keytrack=0
sample=samples/sample-lokey25-hikey25-lovel97-hivel127.wav

<group>


<region>
lokey=28
hikey=28
lovel=0
hivel=96
pitch_keytrack=0
sample=samples/sample-lokey28-hikey28-lovel0-hivel96.wav

<region>
lokey=28
hikey=28
lovel=97
hivel=127
pitch_keytrack=0
sample=samples/sample-lokey28-hikey28-lovel97-hivel127.wav

<group>


<region>
lokey=30
hikey=30
lovel=0
hivel=96
pitch_keytrack=0
sample=samples/sample-lokey30-hikey30-lovel0-hivel96.wav

<region>
lokey=30
hikey=30
lovel=97
hivel=127
pitch_keytrack=0
sample=samples/sample-lokey30-hikey30-lovel97-hivel127.wav

<group>


<region>
lokey=33
hikey=33
lovel=0
hivel=96
pitch_keytrack=0
sample=samples/sample-lokey33-hikey33-lovel0-hivel96.wav

<region>
lokey=33
hikey=33
lovel=97
hivel=127
pitch_keytrack=0
sample=samples/sample-lokey33-hikey33-lovel97-hivel127.wav

<group>


<region>
lokey=35
hikey=35
lovel=0
hivel=96
pitch_keytrack=0
sample=samples/sample-lokey35-hikey35-lovel0-hivel96.wav

<region>
lokey=35
hikey=35
lovel=97
hivel=127
pitch_keytrack=0
sample=samples/sample-lokey35-hikey35-lovel97-hivel127.wav

<group>


<region>
lokey=37
hikey=37
lovel=0
hivel=96
pitch_keytrack=0
sample=samples/sample-lokey37-hikey37-lovel0-hivel96.wav

<region>
lokey=37
hikey=37
lovel=97
hivel=127
pitch_keytrack=0
sample=samples/sample-lokey37-hikey37-lovel97-hivel127.wav

<group>


<region>
lokey=40
hikey=40
lovel=0
hivel=96
pitch_keytrack=0
sample=samples/sample-lokey40-hikey40-lovel0-hivel96.wav

<region>
lokey=40
hikey=40
lovel=97
hivel=127
pitch_keytrack=0
sample=samples/sample-lokey40-hikey40-lovel97-hivel127.wav

<group>


<region>
lokey=42
hikey=42
lovel=0
hivel=96
pitch_keytrack=0
sample=samples/sample-lokey42-hikey42-lovel0-hivel96.wav

<region>
lokey=42
hikey=42
lovel=97
hivel=127
pitch_keytrack=0
sample=samples/sample-lokey42-hikey42-lovel97-hivel127.wav

<group>


<region>
lokey=45
hikey=45
lovel=0
hivel=96
pitch_keytrack=0
sample=samples/sample-lokey45-hikey45-lovel0-hivel96.wav

<region>
lokey=45
hikey=45
lovel=97
hivel=127
pitch_keytrack=0
sample=samples/sample-lokey45-hikey45-lovel97-hivel127.wav

<group>


<region>
lokey=47
hikey=47
lovel=0
hivel=96
pitch_keytrack=0
sample=samples/sample-lokey47-hikey47-lovel0-hivel96.wav

<region>
lokey=47
hikey=47
lovel=97
hivel=127
pitch_keytrack=0
sample=samples/sample-lokey47-hikey47-lovel97-hivel127.wav

<group>


<region>
lokey=49
hikey=49
lovel=0
hivel=96
pitch_keytrack=0
sample=samples/sample-lokey49-hikey49-lovel0-hivel96.wav

<region>
lokey=49
hikey=49
lovel=97
hivel=127
pitch_keytrack=0
sample=samples/sample-lokey49-hikey49-lovel97-hivel127.wav

<group>


<region>
lokey=52
hikey=52
lovel=0
hivel=96
pitch_keytrack=0
sample=samples/sample-lokey52-hikey52-lovel0-hivel96.wav

<region>
lokey=52
hikey=52
lovel=97
hivel=127
pitch_keytrack=0
sample=samples/sample-lokey52-hikey52-lovel97-hivel127.wav

<group>


<region>
lokey=54
hikey=54
lovel=0
hivel=96
pitch_keytrack=0
sample=samples/sample-lokey54-hikey54-lovel0-hivel96.wav

<region>
lokey=54
hikey=54
lovel=97
hivel=127
pitch_keytrack=0
sample=samples/sample-lokey54-hikey54-lovel97-hivel127.wav

<group>


<region>
lokey=57
hikey=57
lovel=0
hivel=96
pitch_keytrack=0
sample=samples/sample-lokey57-hikey57-lovel0-hivel96.wav

<region>
lokey=57
hikey=57
lovel=97
hivel=127
pitch_keytrack=0
sample=samples/sample-lokey57-hikey57-lovel97-hivel127.wav

<group>


<region>
lokey=59
hikey=59
lovel=0
hivel=96
pitch_keytrack=0
sample=samples/sample-lokey59-hikey59-lovel0-hivel96.wav

<region>
lokey=59
hikey=59
lovel=97
hivel=127
pitch_keytrack=0
sample=samples/sample-lokey59-hikey59-lovel97-hivel127.wav

<group>


<region>
lokey=61
hikey=61
lovel=0
hivel=96
pitch_keytrack=0
sample=samples/sample-lokey61-hikey61-lovel0-hivel96.wav

<region>
lokey=61
hikey=61
lovel=96
hivel=127
pitch_keytrack=0
sample=samples/sample-lokey61-hikey61-lovel96-hivel127.wav

<group>


<region>
lokey=64
hikey=64
lovel=0
hivel=96
pitch_keytrack=0
sample=samples/sample-lokey64-hikey64-lovel0-hivel96.wav

<region>
lokey=64
hikey=64
lovel=97
hivel=127
pitch_keytrack=0
sample=samples/sample-lokey64-hikey64-lovel97-hivel127.wav

<group>


<region>
lokey=66
hikey=66
lovel=0
hivel=96
pitch_keytrack=0
sample=samples/sample-lokey66-hikey66-lovel0-hivel96.wav

<region>
lokey=66
hikey=66
lovel=97
hivel=127
pitch_keytrack=0
sample=samples/sample-lokey66-hikey66-lovel97-hivel127.wav

<group>


<region>
lokey=69
hikey=69
lovel=0
hivel=96
pitch_keytrack=0
sample=samples/sample-lokey69-hikey69-lovel0-hivel96.wav

<region>
lokey=69
hikey=69
lovel=97
hivel=127
pitch_keytrack=0
sample=samples/sample-lokey69-hikey69-lovel97-hivel127.wav

<group>


<region>
lokey=71
hikey=71
lovel=0
hivel=96
pitch_keytrack=0
sample=samples/sample-lokey71-hikey71-lovel0-hivel96.wav

<region>
lokey=71
hikey=71
lovel=97
hivel=127
pitch_keytrack=0
sample=samples/sample-lokey71-hikey71-lovel97-hivel127.wav

<group>


<region>
lokey=73
hikey=73
lovel=0
hivel=96
pitch_keytrack=0
sample=samples/sample-lokey73-hikey73-lovel0-hivel96.wav

<region>
lokey=73
hikey=73
lovel=97
hivel=127
pitch_keytrack=0
sample=samples/sample-lokey73-hikey73-lovel97-hivel127.wav

